HIERARCHY
ROOT Hips
{
	OFFSET 0 0 0
	CHANNELS 6 Xposition Yposition Zposition Yrotation Xrotation Zrotation
	JOINT Spine
	{
		OFFSET -0 8.14876 -2.59742
		CHANNELS 3 Yrotation Xrotation Zrotation
		JOINT Spine1
		{
			OFFSET -0 7.67319 0
			CHANNELS 3 Yrotation Xrotation Zrotation
			JOINT Spine2
			{
				OFFSET -0 7.67319 0
				CHANNELS 3 Yrotation Xrotation Zrotation
				JOINT Spine3
				{
					OFFSET -0 7.67319 0
					CHANNELS 3 Yrotation Xrotation Zrotation
					JOINT Neck
					{
						OFFSET -0 20.4825 3.59742
						CHANNELS 3 Yrotation Xrotation Zrotation
						JOINT Head
						{
							OFFSET -0 10.186 0
							CHANNELS 3 Yrotation Xrotation Zrotation
							End Site
							{
								OFFSET 0 15 0
							}
						}
					}
					JOINT LeftShoulder
					{
						OFFSET 1.69766 8.35598 3.39532
						CHANNELS 3 Yrotation Xrotation Zrotation
						JOINT LeftArm
						{
							OFFSET 15.6065 0 0
							CHANNELS 3 Yrotation Xrotation Zrotation
							JOINT LeftForeArm
							{
								OFFSET 25.8005 0 0
								CHANNELS 3 Yrotation Xrotation Zrotation
								JOINT LeftHand
								{
									OFFSET 24.1595 0 0
									CHANNELS 3 Yrotation Xrotation Zrotation
									End Site
									{
										OFFSET 15 0 0
									}
								}
							}
						}
					}
					JOINT RightShoulder
					{
						OFFSET -1.69766 8.35598 3.39532
						CHANNELS 3 Yrotation Xrotation Zrotation
						JOINT RightArm
						{
							OFFSET -15.6065 0 0
							CHANNELS 3 Yrotation Xrotation Zrotation
							JOINT RightForeArm
							{
								OFFSET -25.8005 0 0
								CHANNELS 3 Yrotation Xrotation Zrotation
								JOINT RightHand
								{
									OFFSET -24.1595 0 0
									CHANNELS 3 Yrotation Xrotation Zrotation
									End Site
									{
										OFFSET -15 0 0
									}
								}
							}
						}
					}
				}
			}
		}
	}
	JOINT LeftUpLeg
	{
		OFFSET 10.186 -3.39532 2
		CHANNELS 3 Yrotation Xrotation Zrotation
		JOINT LeftLeg
		{
			OFFSET -0 -40.8746 2.37672
			CHANNELS 3 Yrotation Xrotation Zrotation
			JOINT LeftFoot
			{
				OFFSET -0 -40.8058 -2.37672
				CHANNELS 3 Yrotation Xrotation Zrotation
				JOINT LeftToeBase
				{
					OFFSET -0 -6.55466 15.2789
					CHANNELS 3 Yrotation Xrotation Zrotation
					End Site
					{
						OFFSET 0 0 5
					}
				}
			}
		}
	}
	JOINT RightUpLeg
	{
		OFFSET -10.186 -3.39532 2
		CHANNELS 3 Yrotation Xrotation Zrotation
		JOINT RightLeg
		{
			OFFSET -0 -40.8746 2.37672
			CHANNELS 3 Yrotation Xrotation Zrotation
			JOINT RightFoot
			{
				OFFSET -0 -40.8058 -2.37672
				CHANNELS 3 Yrotation Xrotation Zrotation
				JOINT RightToeBase
				{
					OFFSET -0 -6.55466 15.2789
					CHANNELS 3 Yrotation Xrotation Zrotation
					End Site
					{
						OFFSET 0 0 5
					}
				}
			}
		}
	}
}
MOTION
Frames: 15
Frame Time: 0.00833333
0 94.231349 0 0 0 0 0 0 0 0 0 0 0 0 0 0 0 0 0 0 0 0 0 0 0 0 0 0 0 0 0 0 0 0 0 0 0 0 0 0 0 0 0 0 0 0 0 0 0 0 0 0 0 0 0 0 0 0 0 0 0 0 0 0 0 0 0 0 0 0 0 0
6.856298 93.365149 -10.191933 -0.762002 -2.851643 0.376642 -0.424108 1.864383 -0.660054 -0.597835 1.958783 -0.462781 -0.632400 2.006123 -0.283798 -0.718990 2.088899 -0.223123 -0.506133 -6.739531 -0.847103 -0.444524 0.407288 3.756832 10.803495 5.173683 -1.258001 -35.847671 2.161898 -57.883377 -13.015126 -9.456714 8.840647 14.268669 7.549372 -12.296710 -9.001983 9.355135 7.529585 30.890755 -0.581399 54.659233 19.667999 -4.258750 -11.490357 -10.787436 -0.057183 19.172095 1.811540 6.535900 5.623251 0.000000 3.280714 0.000000 7.207573 -2.705992 -1.645214 0.000000 -4.188680 0.000000 -7.266002 4.608187 -8.131525 0.000000 2.539173 0.000000 -5.779937 -0.736654 4.676078 0.000000 -6.385024 0.000000
6.858310 93.364215 -10.192077 -0.761271 -2.852003 0.375472 -0.428272 1.861980 -0.662771 -0.602094 1.956405 -0.462065 -0.632480 2.012418 -0.280731 -0.718699 2.089500 -0.222856 -0.497190 -6.746986 -0.850813 -0.441418 0.408058 3.764454 10.805173 5.180432 -1.250634 -35.803774 2.126805 -57.883447 -13.001957 -9.460927 8.824814 14.257724 7.568966 -12.309154 -8.991626 9.362292 7.516421 30.883975 -0.598907 54.651333 19.666340 -4.240127 -11.488636 -10.825108 -0.053908 19.200872 1.824099 6.535356 5.622025 0.000000 3.280871 0.000000 7.209788 -2.718419 -1.616321 0.000000 -4.185348 0.000000 -7.274078 4.606080 -8.129565 0.000000 2.538305 0.000000 -5.774945 -0.729038 4.613844 0.000000 -6.387288 0.000000
6.859313 93.365961 -10.193063 -0.763361 -2.852334 0.376835 -0.426891 1.869797 -0.661831 -0.600608 1.955087 -0.463082 -0.637975 2.010258 -0.282312 -0.724827 2.074810 -0.220006 -0.482052 -6.756836 -0.848191 -0.433661 0.428796 3.751755 10.803157 5.170643 -1.251369 -35.739513 2.131022 -57.886698 -13.016646 -9.474984 8.805029 14.216249 7.614701 -12.338445 -8.990182 9.368254 7.515161 30.908519 -0.591079 54.623497 19.651331 -4.276137 -11.459884 -10.823330 0.002179 19.191401 1.826392 6.535036 5.623430 0.000000 3.281331 0.000000 7.190995 -2.702385 -1.632475 0.000000 -4.198162 0.000000 -7.253126 4.608468 -8.133449 0.000000 2.536681 0.000000 -5.779027 -0.736009 4.640735 0.000000 -6.374226 0.000000
6.859261 93.364594 -10.194350 -0.760030 -2.850489 0.375910 -0.427224 1.869957 -0.650919 -0.600463 1.947932 -0.464980 -0.641856 2.011856 -0.294545 -0.729136 2.072323 -0.228901 -0.482852 -6.760431 -0.829500 -0.432667 0.448782 3.746975 10.806984 5.168472 -1.234822 -35.706484 2.130364 -57.887585 -13.034666 -9.482444 8.792722 14.260370 7.660924 -12.327286 -8.972749 9.355804 7.502465 30.948303 -0.548909 54.641510 19.644823 -4.307907 -11.473881 -10.803241 -0.053717 19.232108 1.825872 6.533679 5.622626 0.000000 3.274087 0.000000 7.203103 -2.715087 -1.607424 0.000000 -4.156341 0.000000 -7.268343 4.607183 -8.134663 0.000000 2.534184 0.000000 -5.768913 -0.739409 4.664341 0.000000 -6.382147 0.000000
6.859950 93.367554 -10.192794 -0.758262 -2.851164 0.376091 -0.430920 1.862622 -0.653758 -0.604145 1.946964 -0.466222 -0.640298 2.006260 -0.294806 -0.727449 2.075701 -0.229711 -0.481106 -6.745291 -0.833426 -0.432270 0.461855 3.771290 10.797654 5.188910 -1.236575 -35.696996 2.131157 -57.879466 -13.038032 -9.499952 8.787713 14.291773 7.592359 -12.283938 -8.955887 9.358715 7.507278 30.925545 -0.565812 54.621565 19.612091 -4.331660 -11.461985 -10.781621 -0.023480 19.303163 1.823851 6.534537 5.622048 0.000000 3.276368 0.000000 7.202475 -2.705519 -1.627332 0.000000 -4.189522 0.000000 -7.277710 4.605180 -8.132939 0.000000 2.535037 0.000000 -5.769696 -0.720266 4.629070 0.000000 -6.402107 0.000000
6.861581 93.367126 -10.195350 -0.750973 -2.850089 0.369779 -0.431005 1.879810 -0.633854 -0.603510 1.945597 -0.463323 -0.635543 1.997753 -0.305643 -0.723584 2.050298 -0.236126 -0.484717 -6.742530 -0.816314 -0.430994 0.478411 3.740320 10.787836 5.186216 -1.235506 -35.641954 2.132854 -57.872321 -13.050945 -9.497709 8.764092 14.244951 7.684306 -12.296461 -8.981629 9.344218 7.487118 30.944708 -0.536472 54.642141 19.615771 -4.367470 -11.456557 -10.799181 0.059071 19.259770 1.822580 6.537447 5.628563 0.000000 3.263358 0.000000 7.189233 -2.702617 -1.646105 0.000000 -4.185623 0.000000 -7.272079 4.602646 -8.129752 0.000000 2.544665 0.000000 -5.770531 -0.730067 4.662966 0.000000 -6.378450 0.000000
6.860938 93.367712 -10.194814 -0.754755 -2.849685 0.378592 -0.434429 1.889405 -0.664945 -0.607855 1.938043 -0.466484 -0.639267 1.985889 -0.285421 -0.725320 2.050844 -0.225863 -0.470230 -6.735872 -0.819323 -0.424974 0.478933 3.747912 10.805262 5.178500 -1.237940 -35.607126 2.137592 -57.890311 -13.063256 -9.444227 8.770763 14.265116 7.649166 -12.335401 -8.954701 9.360152 7.481570 30.914989 -0.545765 54.618329 19.625322 -4.326979 -11.460452 -10.827456 0.034983 19.312313 1.835747 6.530575 5.619385 0.000000 3.272876 0.000000 7.187663 -2.705627 -1.610604 0.000000 -4.176518 0.000000 -7.276336 4.606086 -8.134594 0.000000 2.530707 0.000000 -5.775648 -0.729197 4.613262 0.000000 -6.387819 0.000000
6.862955 93.366858 -10.194668 -0.754275 -2.848082 0.374479 -0.444579 1.874204 -0.673685 -0.618231 1.940558 -0.456361 -0.636836 1.996994 -0.265641 -0.718878 2.045521 -0.232676 -0.450718 -6.733739 -0.840014 -0.416314 0.492418 3.746454 10.812277 5.185092 -1.250424 -35.577652 2.138733 -57.885224 -13.084221 -9.524182 8.749998 14.252121 7.671038 -12.241738 -8.932992 9.353080 7.446842 30.969916 -0.496633 54.631087 19.635189 -4.426045 -11.492357 -10.815568 0.070254 19.329587 1.837206 6.532871 5.622038 0.000000 3.268314 0.000000 7.183801 -2.713973 -1.598866 0.000000 -4.166473 0.000000 -7.272871 4.606379 -8.134268 0.000000 2.522469 0.000000 -5.772702 -0.706006 4.629090 0.000000 -6.410002 0.000000
6.862973 93.366956 -10.197617 -0.758495 -2.846902 0.380161 -0.434225 1.878899 -0.663497 -0.606636 1.950742 -0.468071 -0.645345 1.978780 -0.288565 -0.731319 2.037144 -0.226757 -0.461396 -6.727409 -0.818901 -0.420667 0.491076 3.753335 10.808484 5.184975 -1.226974 -35.567372 2.149063 -57.897991 -13.065257 -9.478150 8.749857 14.198264 7.586956 -12.268051 -8.938889 9.364348 7.457539 30.959631 -0.515697 54.610214 19.642735 -4.433313 -11.470635 -10.861122 0.141698 19.304325 1.860174 6.526745 5.619576 0.000000 3.268534 0.000000 7.166437 -2.699959 -1.618881 0.000000 -4.193101 0.000000 -7.278341 4.607791 -8.137184 0.000000 2.514736 0.000000 -5.781496 -0.717876 4.670500 0.000000 -6.381452 0.000000
6.863263 93.369678 -10.195906 -0.756937 -2.846787 0.379130 -0.436815 1.875798 -0.663749 -0.609183 1.950675 -0.468216 -0.642201 1.973691 -0.288643 -0.728160 2.039030 -0.226667 -0.462509 -6.729295 -0.820813 -0.420454 0.503335 3.747594 10.798360 5.196529 -1.236058 -35.544361 2.153326 -57.887470 -13.072890 -9.455558 8.742801 14.254813 7.532889 -12.202413 -8.926958 9.364485 7.460444 30.940028 -0.511824 54.599452 19.645461 -4.473899 -11.484721 -10.838989 0.240973 19.326657 1.848378 6.527885 5.620286 0.000000 3.269161 0.000000 7.168714 -2.689893 -1.633173 0.000000 -4.220592 0.000000 -7.265615 4.610286 -8.138927 0.000000 2.518986 0.000000 -5.780355 -0.716880 4.671526 0.000000 -6.393258 0.000000
6.862655 93.367651 -10.198251 -0.759523 -2.843511 0.385388 -0.431401 1.884197 -0.668152 -0.604079 1.935121 -0.470061 -0.649720 1.978529 -0.288292 -0.734125 2.045443 -0.235200 -0.463075 -6.749283 -0.819661 -0.421370 0.509273 3.751422 10.810299 5.160816 -1.226314 -35.520578 2.180685 -57.890100 -13.105388 -9.510568 8.723267 14.282022 7.565321 -12.171444 -8.922058 9.350944 7.453995 30.966981 -0.505171 54.604455 19.632437 -4.518577 -11.501106 -10.822064 0.247708 19.316385 1.854011 6.527398 5.616175 0.000000 3.263357 0.000000 7.163385 -2.699097 -1.633989 0.000000 -4.191776 0.000000 -7.276599 4.609871 -8.142419 0.000000 2.501444 0.000000 -5.775725 -0.718468 4.639890 0.000000 -6.400870 0.000000
6.864024 93.367651 -10.197008 -0.751048 -2.843248 0.380114 -0.436177 1.866537 -0.648803 -0.607792 1.942466 -0.469783 -0.643538 1.991151 -0.305842 -0.729678 2.035071 -0.243077 -0.484390 -6.739544 -0.807402 -0.429538 0.507237 3.742590 10.799483 5.178890 -1.220214 -35.492543 2.159772 -57.863485 -13.096674 -9.541763 8.693479 14.256662 7.606896 -12.094839 -8.932482 9.366556 7.465302 30.928180 -0.553889 54.589232 19.622318 -4.511649 -11.496530 -10.828296 0.299426 19.329093 1.843603 6.530866 5.618429 0.000000 3.255242 0.000000 7.169044 -2.697813 -1.615508 0.000000 -4.181664 0.000000 -7.272613 4.609974 -8.136432 0.000000 2.512225 0.000000 -5.789236 -0.721494 4.647361 0.000000 -6.387678 0.000000
6.864520 93.366833 -10.197422 -0.761482 -2.842195 0.386375 -0.432937 1.872894 -0.662550 -0.604990 1.943263 -0.470781 -0.649856 1.969394 -0.294135 -0.734324 2.030593 -0.242278 -0.485148 -6.717476 -0.813087 -0.428893 0.499711 3.731735 10.810712 5.190812 -1.229653 -35.518154 2.199966 -57.862345 -13.101760 -9.547971 8.706507 14.284643 7.550568 -12.065630 -8.890991 9.352374 7.450725 30.921497 -0.511492 54.607808 19.630988 -4.534310 -11.523295 -10.839862 0.318219 19.323828 1.868392 6.527611 5.612358 0.000000 3.263014 0.000000 7.158126 -2.710989 -1.611579 0.000000 -4.167450 0.000000 -7.271973 4.611921 -8.142432 0.000000 2.498078 0.000000 -5.780481 -0.725998 4.643509 0.000000 -6.367254 0.000000
6.866442 93.368616 -10.196946 -0.751611 -2.842482 0.381048 -0.434831 1.883654 -0.646706 -0.606510 1.935712 -0.469244 -0.648050 1.968833 -0.306584 -0.733699 2.023165 -0.247906 -0.493481 -6.721273 -0.823940 -0.434255 0.498611 3.756712 10.800277 5.197582 -1.231216 -35.465445 2.191119 -57.834190 -13.113298 -9.521196 8.665105 14.292630 7.529259 -12.004316 -8.901154 9.360882 7.465890 30.900464 -0.515388 54.581607 19.638224 -4.527565 -11.507457 -10.824665 0.348516 19.300755 1.844241 6.531013 5.615839 0.000000 3.253763 0.000000 7.165404 -2.696313 -1.605102 0.000000 -4.204377 0.000000 -7.277194 4.609755 -8.140099 0.000000 2.504657 0.000000 -5.785517 -0.701829 4.619164 0.000000 -6.424988 0.000000
